<svg width="177" height="80" viewBox="0 0 177 80" fill="none" xmlns="http://www.w3.org/2000/svg">
<path d="M4.51007 0.494232C4.51007 0.494232 1 0.494232 1 4.00431V75.9954C1 75.9954 1 79.5055 4.51007 79.5055H76.5012C76.5012 79.5055 80.0112 79.5055 80.0112 75.9954V4.00431C80.0112 4.00431 80.0112 0.494232 76.5012 0.494232H4.51007Z" stroke="white" stroke-width="0.879198" stroke-miterlimit="10"/>
<path d="M35.2108 17.8172H13.0627C11.8663 17.8172 10.8776 16.8384 10.8776 15.6321C10.8776 14.4258 11.8564 13.447 13.0627 13.447H35.2108C36.4072 13.447 37.3959 14.4258 37.3959 15.6321C37.3959 16.8384 36.417 17.8172 35.2108 17.8172Z" fill="white"/>
<path d="M35.2108 31.7586H17.6802C16.3553 31.7586 15.2775 30.6709 15.2775 29.3559C15.2775 28.0409 16.3651 26.9532 17.6802 26.9532H18.046H28.5664C29.7726 26.9532 30.7515 25.9645 30.7515 24.7681C30.7515 23.5717 29.7627 22.5829 28.5664 22.5829H13.0726C11.8663 22.5829 10.8875 23.5717 10.8875 24.7681V33.9536C10.8875 35.1599 11.8762 36.1387 13.0726 36.1387H35.2503C36.4566 36.1387 37.3959 35.15 37.3959 33.9536C37.3959 32.7572 36.4072 31.7685 35.2108 31.7685V31.7586Z" fill="white"/>
<path d="M66.1687 43.861H47.5604C46.364 43.861 45.3752 44.8398 45.3752 46.0461V64.3677C45.3752 65.5641 46.3541 66.5528 47.5604 66.5528C48.7667 66.5528 49.7455 65.574 49.7455 64.3677V48.2312H63.9836V64.3677C63.9836 65.5641 64.9624 66.5528 66.1687 66.5528C67.375 66.5528 68.3539 65.574 68.3539 64.3677V46.0461C68.3539 44.8497 67.375 43.861 66.1687 43.861Z" fill="white"/>
<path d="M35.2108 48.2312H13.0627C11.8663 48.2312 10.8776 47.2524 10.8776 46.0461C10.8776 44.8398 11.8564 43.861 13.0627 43.861H35.2108C36.4072 43.861 37.3959 44.8398 37.3959 46.0461C37.3959 47.2524 36.417 48.2312 35.2108 48.2312Z" fill="white"/>
<path d="M35.2108 62.1727H17.6802C16.3553 62.1727 15.2775 61.085 15.2775 59.77C15.2775 58.455 16.3651 57.3673 17.6802 57.3673H18.046H28.5664C29.7726 57.3673 30.7515 56.3786 30.7515 55.1822C30.7515 53.9858 29.7627 52.997 28.5664 52.997H13.0726C11.8663 52.997 10.8875 53.9858 10.8875 55.1822V64.3677C10.8875 65.574 11.8762 66.5528 13.0726 66.5528H35.2503C36.4566 66.5528 37.3959 65.5641 37.3959 64.3677C37.3959 63.1713 36.4072 62.1826 35.2108 62.1826V62.1727Z" fill="white"/>
<path d="M67.9386 31.7685H45.7905C44.5941 31.7685 43.6053 32.7474 43.6053 33.9536C43.6053 35.1599 44.5842 36.1388 45.7905 36.1388H67.9386C69.1349 36.1388 70.1237 35.1599 70.1237 33.9536C70.1237 32.7474 69.1448 31.7685 67.9386 31.7685Z" fill="white"/>
<path d="M67.9386 17.8271H50.408C49.083 17.8271 48.0053 18.9148 48.0053 20.2298C48.0053 21.5448 49.0929 22.6325 50.408 22.6325H50.7738H61.304C62.5103 22.6325 63.4892 23.6212 63.4892 24.8176C63.4892 26.014 62.5004 27.0028 61.304 27.0028H45.8004C44.5941 27.0028 43.6152 26.014 43.6152 24.8176V15.6321C43.6152 14.4258 44.604 13.447 45.8004 13.447H67.9781C69.1844 13.447 70.1237 14.4357 70.1237 15.6321C70.1237 16.8285 69.1349 17.8172 67.9386 17.8172V17.8271Z" fill="white"/>
<path d="M91.5056 0V1H176.506V0H91.5056Z" fill="white"/>
<path d="M91.5056 79.0244V80H176.506V79L91.5056 79.0244Z" fill="white"/>
<path d="M99.0244 18H97.9126V13.9065H93.7405V18H92.6287V9.63892H93.7405V12.9182H97.9126V9.63892H99.0244V18ZM107.36 18H101.851V9.63892H107.36V10.6272H102.963V12.9182H107.36V13.9065H102.963V17.0117H107.36V18ZM114.993 18H109.703V9.63892H110.815V17.0117H114.993V18ZM121.969 18H116.68V9.63892H117.792V17.0117H121.969V18ZM129.165 18H123.656V9.63892H129.165V10.6272H124.768V12.9182H129.165V13.9065H124.768V17.0117H129.165V18ZM137.887 18H136.512L132.547 10.5205V18H131.509V9.63892H133.232L136.849 16.467V9.63892H137.887V18ZM143.634 18H140.332V17.1465H141.427V10.4924H140.332V9.63892H143.634V10.4924H142.539V17.1465H143.634V18ZM152.559 17.3936C152.353 17.4834 152.166 17.5676 151.997 17.6462C151.833 17.7249 151.616 17.8072 151.346 17.8933C151.118 17.9644 150.869 18.0243 150.599 18.073C150.333 18.1254 150.04 18.1516 149.718 18.1516C149.111 18.1516 148.559 18.0674 148.061 17.8989C147.567 17.7267 147.136 17.4591 146.77 17.0959C146.41 16.7403 146.129 16.2892 145.927 15.7427C145.725 15.1924 145.624 14.5541 145.624 13.8279C145.624 13.1391 145.721 12.5233 145.916 11.9805C146.111 11.4377 146.392 10.9791 146.758 10.6047C147.114 10.2416 147.543 9.9646 148.044 9.77368C148.55 9.58276 149.109 9.4873 149.723 9.4873C150.172 9.4873 150.62 9.54159 151.065 9.65015C151.515 9.75871 152.012 9.94963 152.559 10.2229V11.5425H152.475C152.014 11.1569 151.558 10.8761 151.105 10.7002C150.652 10.5243 150.167 10.4363 149.65 10.4363C149.227 10.4363 148.845 10.5055 148.505 10.644C148.168 10.7788 147.866 10.9903 147.601 11.2786C147.342 11.5593 147.14 11.915 146.994 12.3455C146.852 12.7722 146.781 13.2664 146.781 13.8279C146.781 14.4156 146.859 14.921 147.017 15.344C147.178 15.767 147.384 16.1114 147.634 16.3772C147.896 16.6542 148.202 16.8601 148.55 16.9949C148.902 17.1259 149.272 17.1914 149.661 17.1914C150.197 17.1914 150.698 17.0997 151.166 16.9163C151.634 16.7328 152.072 16.4577 152.48 16.0908H152.559V17.3936ZM99.9678 31.5227C99.5934 31.6687 99.0974 31.8147 98.4797 31.9607C97.8621 32.1029 97.2463 32.1741 96.6323 32.1741C95.2098 32.1741 94.0961 31.7885 93.2913 31.0173C92.4864 30.2424 92.084 29.1737 92.084 27.811C92.084 26.512 92.4902 25.4657 93.3025 24.6721C94.1148 23.8748 95.2472 23.4761 96.6997 23.4761C97.25 23.4761 97.7741 23.5266 98.272 23.6277C98.7699 23.725 99.3239 23.9215 99.9341 24.2173V26.177H99.6926C99.5878 26.0984 99.4343 25.988 99.2322 25.8457C99.03 25.6997 98.8354 25.5762 98.6482 25.4751C98.4311 25.3553 98.1765 25.2524 97.8845 25.1663C97.5963 25.0802 97.2893 25.0371 96.9636 25.0371C96.5818 25.0371 96.2355 25.0933 95.9248 25.2056C95.6141 25.3179 95.3352 25.4901 95.0881 25.7222C94.8523 25.9468 94.6651 26.2332 94.5266 26.5813C94.3918 26.9257 94.3245 27.3244 94.3245 27.7773C94.3245 28.702 94.5697 29.4095 95.0601 29.8999C95.5505 30.3903 96.2748 30.6355 97.2332 30.6355C97.3155 30.6355 97.4054 30.6336 97.5027 30.6299C97.6038 30.6261 97.6955 30.6205 97.7778 30.613V28.9734H96.1101V27.3955H99.9678V31.5227ZM110.207 32H107.977L107.399 30.3098H104.299L103.721 32H101.548L104.636 23.6389H107.118L110.207 32ZM106.877 28.7769L105.849 25.7783L104.822 28.7769H106.877ZM120.749 32H118.604V26.4016L117.054 30.0347H115.566L114.016 26.4016V32H111.983V23.6389H114.488L116.369 27.8335L118.244 23.6389H120.749V32ZM127.983 32H123.087V30.5176H124.457V25.1213H123.087V23.6389H127.983V25.1213H126.613V30.5176H127.983V32ZM137.919 32H135.841L132.292 26.2612V32H130.316V23.6389H132.893L135.942 28.4287V23.6389H137.919V32ZM148.023 31.5227C147.649 31.6687 147.153 31.8147 146.535 31.9607C145.917 32.1029 145.301 32.1741 144.688 32.1741C143.265 32.1741 142.151 31.7885 141.346 31.0173C140.542 30.2424 140.139 29.1737 140.139 27.811C140.139 26.512 140.545 25.4657 141.358 24.6721C142.17 23.8748 143.302 23.4761 144.755 23.4761C145.305 23.4761 145.829 23.5266 146.327 23.6277C146.825 23.725 147.379 23.9215 147.989 24.2173V26.177H147.748C147.643 26.0984 147.49 25.988 147.287 25.8457C147.085 25.6997 146.891 25.5762 146.703 25.4751C146.486 25.3553 146.232 25.2524 145.94 25.1663C145.651 25.0802 145.344 25.0371 145.019 25.0371C144.637 25.0371 144.291 25.0933 143.98 25.2056C143.669 25.3179 143.39 25.4901 143.143 25.7222C142.907 25.9468 142.72 26.2332 142.582 26.5813C142.447 26.9257 142.38 27.3244 142.38 27.7773C142.38 28.702 142.625 29.4095 143.115 29.8999C143.606 30.3903 144.33 30.6355 145.288 30.6355C145.371 30.6355 145.461 30.6336 145.558 30.6299C145.659 30.6261 145.751 30.6205 145.833 30.613V28.9734H144.165V27.3955H148.023V31.5227ZM99.0862 45.3936C98.8803 45.4834 98.6931 45.5676 98.5247 45.6462C98.3599 45.7249 98.1428 45.8072 97.8733 45.8933C97.6449 45.9644 97.396 46.0243 97.1265 46.073C96.8607 46.1254 96.5668 46.1516 96.2449 46.1516C95.6384 46.1516 95.0863 46.0674 94.5884 45.8989C94.0942 45.7267 93.6637 45.4591 93.2969 45.0959C92.9375 44.7403 92.6567 44.2892 92.4546 43.7427C92.2524 43.1924 92.1514 42.5541 92.1514 41.8279C92.1514 41.1391 92.2487 40.5233 92.4434 39.9805C92.638 39.4377 92.9188 38.9791 93.2856 38.6047C93.6413 38.2416 94.0699 37.9646 94.5715 37.7737C95.0769 37.5828 95.6366 37.4873 96.2505 37.4873C96.6997 37.4873 97.1471 37.5416 97.5925 37.6501C98.0417 37.7587 98.5396 37.9496 99.0862 38.2229V39.5425H99.002C98.5415 39.1569 98.0848 38.8761 97.6318 38.7002C97.1789 38.5243 96.6941 38.4363 96.1775 38.4363C95.7545 38.4363 95.3726 38.5055 95.032 38.644C94.6951 38.7788 94.3937 38.9903 94.1279 39.2786C93.8696 39.5593 93.6675 39.915 93.5215 40.3455C93.3792 40.7722 93.3081 41.2664 93.3081 41.8279C93.3081 42.4156 93.3867 42.921 93.5439 43.344C93.7049 43.767 93.9108 44.1114 94.1616 44.3772C94.4237 44.6542 94.7288 44.8601 95.0769 44.9949C95.4288 45.1259 95.7994 45.1914 96.1887 45.1914C96.724 45.1914 97.2257 45.0997 97.6936 44.9163C98.1615 44.7328 98.5995 44.4577 99.0076 44.0908H99.0862V45.3936ZM107.466 38.5991C107.807 38.9735 108.067 39.432 108.247 39.9749C108.43 40.5177 108.522 41.1335 108.522 41.8223C108.522 42.5111 108.428 43.1287 108.241 43.6753C108.058 44.2181 107.8 44.6711 107.466 45.0342C107.122 45.4123 106.714 45.6968 106.242 45.8877C105.774 46.0786 105.239 46.1741 104.636 46.1741C104.049 46.1741 103.513 46.0767 103.03 45.8821C102.551 45.6874 102.143 45.4048 101.806 45.0342C101.469 44.6636 101.209 44.2087 101.026 43.6697C100.846 43.1306 100.756 42.5148 100.756 41.8223C100.756 41.141 100.846 40.5308 101.026 39.9917C101.205 39.4489 101.467 38.9847 101.812 38.5991C102.141 38.2323 102.549 37.9515 103.036 37.7568C103.526 37.5622 104.06 37.4648 104.636 37.4648C105.235 37.4648 105.772 37.564 106.248 37.7625C106.727 37.9571 107.133 38.236 107.466 38.5991ZM107.365 41.8223C107.365 40.7367 107.122 39.9 106.635 39.3123C106.149 38.7208 105.484 38.425 104.642 38.425C103.792 38.425 103.124 38.7208 102.637 39.3123C102.154 39.9 101.913 40.7367 101.913 41.8223C101.913 42.9191 102.16 43.7595 102.654 44.3435C103.148 44.9237 103.811 45.2139 104.642 45.2139C105.473 45.2139 106.134 44.9237 106.624 44.3435C107.118 43.7595 107.365 42.9191 107.365 41.8223ZM118.306 46H117.194V38.7957L114.869 43.6978H114.207L111.899 38.7957V46H110.86V37.6389H112.376L114.606 42.2939L116.762 37.6389H118.306V46ZM128.573 46H127.461V38.7957L125.136 43.6978H124.474L122.166 38.7957V46H121.127V37.6389H122.643L124.872 42.2939L127.029 37.6389H128.573V46ZM134.342 46H131.04V45.1465H132.135V38.4924H131.04V37.6389H134.342V38.4924H133.247V45.1465H134.342V46ZM142.885 43.6135C142.885 43.9392 142.808 44.2611 142.655 44.5793C142.505 44.8975 142.294 45.1671 142.02 45.3879C141.721 45.6275 141.371 45.8147 140.97 45.9495C140.573 46.0842 140.094 46.1516 139.533 46.1516C138.93 46.1516 138.387 46.0955 137.904 45.9832C137.425 45.8708 136.937 45.7043 136.439 45.4834V44.0908H136.517C136.94 44.4427 137.429 44.7141 137.983 44.905C138.537 45.0959 139.057 45.1914 139.544 45.1914C140.233 45.1914 140.768 45.0623 141.15 44.804C141.535 44.5457 141.728 44.2013 141.728 43.7708C141.728 43.4001 141.637 43.1269 141.453 42.9509C141.273 42.775 140.998 42.6383 140.628 42.541C140.347 42.4661 140.042 42.4044 139.712 42.3557C139.387 42.307 139.04 42.2453 138.674 42.1704C137.932 42.0132 137.382 41.7455 137.023 41.3674C136.667 40.9856 136.489 40.4896 136.489 39.8794C136.489 39.1794 136.785 38.6066 137.376 38.1611C137.968 37.7119 138.719 37.4873 139.628 37.4873C140.216 37.4873 140.755 37.5435 141.245 37.6558C141.736 37.7681 142.17 37.9066 142.548 38.0713V39.3853H142.469C142.151 39.1157 141.732 38.893 141.212 38.717C140.695 38.5374 140.165 38.4475 139.623 38.4475C139.027 38.4475 138.548 38.571 138.185 38.8181C137.826 39.0652 137.646 39.3834 137.646 39.7727C137.646 40.1208 137.736 40.3941 137.916 40.5925C138.095 40.7909 138.412 40.9425 138.865 41.0474C139.104 41.0998 139.445 41.1634 139.886 41.2383C140.328 41.3132 140.703 41.3899 141.01 41.4685C141.631 41.6332 142.099 41.8822 142.413 42.2153C142.728 42.5485 142.885 43.0146 142.885 43.6135ZM151.198 43.6135C151.198 43.9392 151.121 44.2611 150.968 44.5793C150.818 44.8975 150.606 45.1671 150.333 45.3879C150.034 45.6275 149.684 45.8147 149.283 45.9495C148.886 46.0842 148.407 46.1516 147.846 46.1516C147.243 46.1516 146.7 46.0955 146.217 45.9832C145.738 45.8708 145.249 45.7043 144.752 45.4834V44.0908H144.83C145.253 44.4427 145.742 44.7141 146.296 44.905C146.85 45.0959 147.37 45.1914 147.857 45.1914C148.546 45.1914 149.081 45.0623 149.463 44.804C149.848 44.5457 150.041 44.2013 150.041 43.7708C150.041 43.4001 149.949 43.1269 149.766 42.9509C149.586 42.775 149.311 42.6383 148.94 42.541C148.66 42.4661 148.355 42.4044 148.025 42.3557C147.7 42.307 147.353 42.2453 146.986 42.1704C146.245 42.0132 145.695 41.7455 145.335 41.3674C144.98 40.9856 144.802 40.4896 144.802 39.8794C144.802 39.1794 145.098 38.6066 145.689 38.1611C146.281 37.7119 147.031 37.4873 147.941 37.4873C148.529 37.4873 149.068 37.5435 149.558 37.6558C150.049 37.7681 150.483 37.9066 150.861 38.0713V39.3853H150.782C150.464 39.1157 150.045 38.893 149.524 38.717C149.008 38.5374 148.478 38.4475 147.935 38.4475C147.34 38.4475 146.861 38.571 146.498 38.8181C146.138 39.0652 145.959 39.3834 145.959 39.7727C145.959 40.1208 146.049 40.3941 146.228 40.5925C146.408 40.7909 146.724 40.9425 147.177 41.0474C147.417 41.0998 147.758 41.1634 148.199 41.2383C148.641 41.3132 149.015 41.3899 149.322 41.4685C149.944 41.6332 150.412 41.8822 150.726 42.2153C151.041 42.5485 151.198 43.0146 151.198 43.6135ZM156.506 46H153.205V45.1465H154.3V38.4924H153.205V37.6389H156.506V38.4924H155.411V45.1465H156.506V46ZM165.207 38.5991C165.547 38.9735 165.808 39.432 165.987 39.9749C166.171 40.5177 166.262 41.1335 166.262 41.8223C166.262 42.5111 166.169 43.1287 165.982 43.6753C165.798 44.2181 165.54 44.6711 165.207 45.0342C164.862 45.4123 164.454 45.6968 163.983 45.8877C163.515 46.0786 162.979 46.1741 162.377 46.1741C161.789 46.1741 161.254 46.0767 160.771 45.8821C160.291 45.6874 159.883 45.4048 159.547 45.0342C159.21 44.6636 158.949 44.2087 158.766 43.6697C158.586 43.1306 158.496 42.5148 158.496 41.8223C158.496 41.141 158.586 40.5308 158.766 39.9917C158.946 39.4489 159.208 38.9847 159.552 38.5991C159.882 38.2323 160.29 37.9515 160.776 37.7568C161.267 37.5622 161.8 37.4648 162.377 37.4648C162.976 37.4648 163.513 37.564 163.988 37.7625C164.467 37.9571 164.874 38.236 165.207 38.5991ZM165.106 41.8223C165.106 40.7367 164.862 39.9 164.376 39.3123C163.889 38.7208 163.225 38.425 162.382 38.425C161.532 38.425 160.864 38.7208 160.378 39.3123C159.895 39.9 159.653 40.7367 159.653 41.8223C159.653 42.9191 159.9 43.7595 160.394 44.3435C160.889 44.9237 161.551 45.2139 162.382 45.2139C163.213 45.2139 163.874 44.9237 164.364 44.3435C164.859 43.7595 165.106 42.9191 165.106 41.8223ZM174.979 46H173.604L169.639 38.5205V46H168.601V37.6389H170.324L173.941 44.467V37.6389H174.979V46Z" fill="white"/>
<path d="M93.9836 63H91.9739V62.4805H92.6404V58.4302H91.9739V57.9106H93.9836V58.4302H93.3171V62.4805H93.9836V63ZM99.3683 63H98.5309L96.1178 58.4473V63H95.4855V57.9106H96.5348L98.736 62.0669V57.9106H99.3683V63ZM105.372 60.4604C105.372 60.923 105.27 61.3423 105.067 61.7183C104.867 62.0942 104.599 62.3859 104.264 62.5933C104.032 62.7368 103.772 62.8405 103.485 62.9043C103.2 62.9681 102.824 63 102.357 63H101.072V57.9106H102.343C102.84 57.9106 103.234 57.9471 103.526 58.02C103.82 58.0907 104.068 58.1886 104.271 58.314C104.617 58.5304 104.887 58.8187 105.081 59.1787C105.275 59.5387 105.372 59.966 105.372 60.4604ZM104.664 60.4502C104.664 60.0514 104.595 59.7153 104.456 59.4419C104.317 59.1685 104.109 58.9531 103.834 58.7959C103.633 58.682 103.42 58.6034 103.194 58.5601C102.969 58.5145 102.699 58.4917 102.384 58.4917H101.749V62.4189H102.384C102.71 62.4189 102.994 62.395 103.235 62.3472C103.479 62.2993 103.703 62.2104 103.905 62.0806C104.158 61.9188 104.347 61.7057 104.473 61.4414C104.6 61.1771 104.664 60.8467 104.664 60.4502ZM110.168 63H106.815V57.9106H110.168V58.5122H107.492V59.9067H110.168V60.5083H107.492V62.3984H110.168V63ZM114.924 59.4487C114.924 59.6743 114.884 59.884 114.805 60.0776C114.727 60.269 114.618 60.4354 114.476 60.5767C114.301 60.7521 114.094 60.8843 113.854 60.9731C113.615 61.0597 113.313 61.103 112.949 61.103H112.272V63H111.595V57.9106H112.976C113.281 57.9106 113.54 57.9368 113.752 57.9893C113.964 58.0394 114.152 58.1191 114.316 58.2285C114.509 58.3584 114.659 58.5202 114.764 58.7139C114.871 58.9076 114.924 59.1525 114.924 59.4487ZM114.22 59.4658C114.22 59.2904 114.189 59.1377 114.128 59.0078C114.066 58.8779 113.973 58.772 113.848 58.6899C113.738 58.6193 113.613 58.5692 113.472 58.5396C113.333 58.5076 113.156 58.4917 112.942 58.4917H112.272V60.5254H112.843C113.116 60.5254 113.338 60.5015 113.509 60.4536C113.68 60.4035 113.819 60.3249 113.926 60.2178C114.033 60.1084 114.108 59.9933 114.152 59.8726C114.197 59.7518 114.22 59.6162 114.22 59.4658ZM119.523 63H116.17V57.9106H119.523V58.5122H116.846V59.9067H119.523V60.5083H116.846V62.3984H119.523V63ZM124.832 63H123.995L121.582 58.4473V63H120.949V57.9106H121.999L124.2 62.0669V57.9106H124.832V63ZM130.835 60.4604C130.835 60.923 130.734 61.3423 130.531 61.7183C130.331 62.0942 130.063 62.3859 129.728 62.5933C129.496 62.7368 129.236 62.8405 128.949 62.9043C128.664 62.9681 128.288 63 127.821 63H126.536V57.9106H127.807C128.304 57.9106 128.698 57.9471 128.99 58.02C129.284 58.0907 129.532 58.1886 129.735 58.314C130.081 58.5304 130.351 58.8187 130.545 59.1787C130.739 59.5387 130.835 59.966 130.835 60.4604ZM130.128 60.4502C130.128 60.0514 130.058 59.7153 129.919 59.4419C129.78 59.1685 129.573 58.9531 129.297 58.7959C129.097 58.682 128.884 58.6034 128.658 58.5601C128.433 58.5145 128.163 58.4917 127.848 58.4917H127.212V62.4189H127.848C128.174 62.4189 128.458 62.395 128.699 62.3472C128.943 62.2993 129.166 62.2104 129.369 62.0806C129.622 61.9188 129.811 61.7057 129.937 61.4414C130.064 61.1771 130.128 60.8467 130.128 60.4502ZM135.632 63H132.279V57.9106H135.632V58.5122H132.956V59.9067H135.632V60.5083H132.956V62.3984H135.632V63ZM140.942 63H140.104L137.691 58.4473V63H137.059V57.9106H138.108L140.309 62.0669V57.9106H140.942V63ZM146.275 58.5122H144.457V63H143.78V58.5122H141.962V57.9106H146.275V58.5122ZM96.2019 72H95.4807L94.9817 70.5815H92.7805L92.2815 72H91.5945L93.447 66.9106H94.3494L96.2019 72ZM94.7732 70.0005L93.8811 67.502L92.9856 70.0005H94.7732ZM101.122 69.9561C101.122 70.3252 101.081 70.6476 100.999 70.9233C100.919 71.1968 100.787 71.4246 100.602 71.6069C100.427 71.7801 100.222 71.9066 99.987 71.9863C99.7523 72.0661 99.4788 72.106 99.1667 72.106C98.8476 72.106 98.5696 72.0638 98.3327 71.9795C98.0957 71.8952 97.8963 71.771 97.7345 71.6069C97.55 71.4201 97.4167 71.1945 97.3346 70.9302C97.2549 70.6659 97.215 70.3411 97.215 69.9561V66.9106H97.8917V69.9902C97.8917 70.266 97.91 70.4836 97.9464 70.6431C97.9852 70.8026 98.049 70.9473 98.1378 71.0771C98.2381 71.2253 98.3737 71.3369 98.5446 71.4121C98.7178 71.4873 98.9251 71.5249 99.1667 71.5249C99.4105 71.5249 99.6178 71.4884 99.7887 71.4155C99.9596 71.3403 100.096 71.2275 100.199 71.0771C100.288 70.9473 100.35 70.7992 100.387 70.6328C100.426 70.4642 100.445 70.2557 100.445 70.0073V66.9106H101.122V69.9561ZM106.397 67.5122H104.579V72H103.902V67.5122H102.084V66.9106H106.397V67.5122ZM111.324 72H110.647V69.5083H108.107V72H107.431V66.9106H108.107V68.9067H110.647V66.9106H111.324V72ZM116.838 67.4951C117.046 67.723 117.204 68.0021 117.313 68.3325C117.425 68.6629 117.481 69.0378 117.481 69.457C117.481 69.8763 117.424 70.2523 117.31 70.585C117.198 70.9154 117.041 71.1911 116.838 71.4121C116.629 71.6423 116.38 71.8154 116.093 71.9316C115.808 72.0479 115.482 72.106 115.116 72.106C114.758 72.106 114.432 72.0467 114.138 71.9282C113.846 71.8097 113.598 71.6377 113.393 71.4121C113.188 71.1865 113.029 70.9097 112.918 70.5815C112.808 70.2534 112.754 69.8786 112.754 69.457C112.754 69.0423 112.808 68.6709 112.918 68.3428C113.027 68.0124 113.187 67.7298 113.396 67.4951C113.597 67.2718 113.845 67.1009 114.141 66.9824C114.44 66.8639 114.765 66.8047 115.116 66.8047C115.48 66.8047 115.807 66.8651 116.097 66.9858C116.388 67.1043 116.635 67.2741 116.838 67.4951ZM116.777 69.457C116.777 68.7962 116.629 68.2869 116.332 67.9292C116.036 67.5692 115.632 67.3892 115.119 67.3892C114.602 67.3892 114.195 67.5692 113.899 67.9292C113.605 68.2869 113.458 68.7962 113.458 69.457C113.458 70.1247 113.608 70.6362 113.909 70.9917C114.21 71.3449 114.613 71.5215 115.119 71.5215C115.625 71.5215 116.027 71.3449 116.326 70.9917C116.626 70.6362 116.777 70.1247 116.777 69.457ZM123.115 72H122.237L120.534 69.9766H119.581V72H118.904V66.9106H120.329C120.637 66.9106 120.893 66.9312 121.098 66.9722C121.303 67.0109 121.488 67.0815 121.652 67.1841C121.837 67.3003 121.98 67.4473 122.083 67.625C122.188 67.8005 122.24 68.0238 122.24 68.2949C122.24 68.6618 122.148 68.9694 121.963 69.2178C121.779 69.4639 121.524 69.6496 121.201 69.7749L123.115 72ZM121.532 68.3428C121.532 68.1969 121.506 68.0682 121.454 67.9565C121.404 67.8426 121.319 67.7469 121.201 67.6694C121.103 67.6034 120.987 67.5578 120.852 67.5327C120.718 67.5054 120.559 67.4917 120.377 67.4917H119.581V69.4126H120.264C120.479 69.4126 120.665 69.3944 120.825 69.3579C120.984 69.3192 121.12 69.2485 121.232 69.146C121.334 69.0503 121.409 68.9409 121.457 68.8179C121.507 68.6925 121.532 68.5342 121.532 68.3428ZM125.916 72H123.906V71.4805H124.572V67.4302H123.906V66.9106H125.916V67.4302H125.249V71.4805H125.916V72ZM131.047 67.5122H129.229V72H128.552V67.5122H126.734V66.9106H131.047V67.5122ZM135.684 66.9106L133.893 69.7681V72H133.216V69.8398L131.418 66.9106H132.166L133.558 69.187L134.962 66.9106H135.684Z" fill="white"/>
</svg>
