<svg width="169" height="80" viewBox="0 0 169 80" fill="none" xmlns="http://www.w3.org/2000/svg">
<g clip-path="url(#clip0_218_722006)">
<path d="M4.09723 0.494232C4.09723 0.494232 0.587158 0.494232 0.587158 4.00431V75.9954C0.587158 75.9954 0.587158 79.5055 4.09723 79.5055H76.0883C76.0883 79.5055 79.5984 79.5055 79.5984 75.9954V4.00431C79.5984 4.00431 79.5984 0.494232 76.0883 0.494232H4.09723Z" stroke="white" stroke-width="0.879198" stroke-miterlimit="10"/>
<path d="M34.7979 17.8173H12.6499C11.4535 17.8173 10.4647 16.8384 10.4647 15.6321C10.4647 14.4258 11.4436 13.447 12.6499 13.447H34.7979C35.9943 13.447 36.9831 14.4258 36.9831 15.6321C36.9831 16.8384 36.0042 17.8173 34.7979 17.8173Z" fill="white"/>
<path d="M34.7979 31.7586H17.2673C15.9424 31.7586 14.8647 30.6709 14.8647 29.3559C14.8647 28.0409 15.9523 26.9532 17.2673 26.9532H17.6332H28.1535C29.3598 26.9532 30.3387 25.9645 30.3387 24.7681C30.3387 23.5717 29.3499 22.5829 28.1535 22.5829H12.6598C11.4535 22.5829 10.4746 23.5717 10.4746 24.7681V33.9536C10.4746 35.1599 11.4634 36.1387 12.6598 36.1387H34.8375C36.0438 36.1387 36.9831 35.15 36.9831 33.9536C36.9831 32.7572 35.9943 31.7685 34.7979 31.7685V31.7586Z" fill="white"/>
<path d="M65.7559 43.8609H47.1475C45.9512 43.8609 44.9624 44.8398 44.9624 46.0461V64.3677C44.9624 65.5641 45.9413 66.5528 47.1475 66.5528C48.3538 66.5528 49.3327 65.574 49.3327 64.3677V48.2312H63.5707V64.3677C63.5707 65.5641 64.5496 66.5528 65.7559 66.5528C66.9622 66.5528 67.941 65.574 67.941 64.3677V46.0461C67.941 44.8497 66.9622 43.8609 65.7559 43.8609Z" fill="white"/>
<path d="M34.7979 48.2312H12.6499C11.4535 48.2312 10.4647 47.2524 10.4647 46.0461C10.4647 44.8398 11.4436 43.8609 12.6499 43.8609H34.7979C35.9943 43.8609 36.9831 44.8398 36.9831 46.0461C36.9831 47.2524 36.0042 48.2312 34.7979 48.2312Z" fill="white"/>
<path d="M34.7979 62.1727H17.2673C15.9424 62.1727 14.8647 61.085 14.8647 59.77C14.8647 58.455 15.9523 57.3673 17.2673 57.3673H17.6332H28.1535C29.3598 57.3673 30.3387 56.3786 30.3387 55.1822C30.3387 53.9858 29.3499 52.997 28.1535 52.997H12.6598C11.4535 52.997 10.4746 53.9858 10.4746 55.1822V64.3677C10.4746 65.574 11.4634 66.5528 12.6598 66.5528H34.8375C36.0438 66.5528 36.9831 65.5641 36.9831 64.3677C36.9831 63.1713 35.9943 62.1826 34.7979 62.1826V62.1727Z" fill="white"/>
<path d="M67.5257 31.7685H45.3776C44.1813 31.7685 43.1925 32.7474 43.1925 33.9536C43.1925 35.1599 44.1714 36.1388 45.3776 36.1388H67.5257C68.7221 36.1388 69.7109 35.1599 69.7109 33.9536C69.7109 32.7474 68.732 31.7685 67.5257 31.7685Z" fill="white"/>
<path d="M67.5257 17.8272H49.9951C48.6702 17.8272 47.5925 18.9148 47.5925 20.2298C47.5925 21.5449 48.6801 22.6325 49.9951 22.6325H50.361H60.8912C62.0975 22.6325 63.0763 23.6212 63.0763 24.8176C63.0763 26.014 62.0876 27.0028 60.8912 27.0028H45.3875C44.1813 27.0028 43.2024 26.014 43.2024 24.8176V15.6321C43.2024 14.4258 44.1911 13.447 45.3875 13.447H67.5653C68.7715 13.447 69.7109 14.4357 69.7109 15.6321C69.7109 16.8285 68.7221 17.8173 67.5257 17.8173V17.8272Z" fill="white"/>
<path d="M90.4846 0.494232V0.889733H168.784V0.494232H90.4846Z" fill="white"/>
<path d="M93.2135 70.0235H94.8647L94.044 67.9471L93.2234 70.0235H93.2135ZM91.6018 72.0307L93.609 67.0177H94.4692L96.4764 72.0307H95.6557L95.1514 70.7453H92.9267L92.4225 72.0307H91.6018Z" fill="white"/>
<path d="M97.6628 72.0207V67.0077H98.3846L101.143 70.6958V67.0077H101.934V72.0207H101.212L98.4538 68.3327V72.0207H97.6628Z" fill="white"/>
<path d="M103.773 72.0207V67.0077H107.323V67.7592H104.564V69.0544H106.749V69.8059H104.564V71.2693H107.392V72.0207H103.773Z" fill="white"/>
<path d="M109.123 69.0544H111.99V69.8059H109.123V69.0544ZM108.658 67.0077H112.455V67.7592H108.658V67.0077ZM108.549 71.2693H112.563V72.0207H108.549V71.2693Z" fill="white"/>
<path d="M115.095 70.0235H116.746L115.925 67.9471L115.104 70.0235H115.095ZM113.483 72.0307L115.49 67.0177H116.35L118.357 72.0307H117.537L117.033 70.7453H114.808L114.304 72.0307H113.483Z" fill="white"/>
<path d="M120.335 69.5192H121.551C121.798 69.5192 122.016 69.4302 122.184 69.2622C122.362 69.0941 122.441 68.8765 122.441 68.6195C122.441 68.3624 122.352 68.1548 122.184 67.9768C122.006 67.8087 121.798 67.7197 121.551 67.7197H120.335V69.5093V69.5192ZM119.544 72.0307V67.0177H121.551C122.036 67.0177 122.431 67.1759 122.757 67.4824C123.074 67.7889 123.242 68.1745 123.242 68.6294C123.242 69.0842 123.084 69.4698 122.757 69.7763C122.441 70.0828 122.036 70.241 121.551 70.241H120.335V72.0307H119.544Z" fill="white"/>
<path d="M125.615 72.0207V67.7592H124.112V67.0077H127.909V67.7592H126.406V72.0207H125.615Z" fill="white"/>
<path d="M129.174 72.0207V67.0077H129.965V69.1237H132.437V67.0077H133.228V72.0207H132.437V69.8356H129.965V72.0207H129.174Z" fill="white"/>
<path d="M136.007 72.0207V67.7592H134.494V67.0077H138.301V67.7592H136.788V72.0207H136.007Z" fill="white"/>
<path d="M139.566 72.0207V67.0077H140.357V69.1237H142.829V67.0077H143.61V72.0207H142.829V69.8356H140.357V72.0207H139.566Z" fill="white"/>
<path d="M148.119 70.0235H149.77L148.95 67.9471L148.129 70.0235H148.119ZM146.507 72.0307L148.514 67.0177H149.375L151.382 72.0307H150.561L150.057 70.7453H147.832L147.328 72.0307H146.507Z" fill="white"/>
<path d="M153.369 69.5192H154.585C154.833 69.5192 155.05 69.4302 155.218 69.2622C155.396 69.0941 155.485 68.8765 155.485 68.6195C155.485 68.3624 155.396 68.1548 155.218 67.9768C155.04 67.8087 154.833 67.7197 154.585 67.7197H153.369V69.5093V69.5192ZM152.578 72.0307V67.0177H154.585C155.07 67.0177 155.465 67.1759 155.792 67.4824C156.108 67.7889 156.276 68.1745 156.276 68.6294C156.276 69.0842 156.118 69.4698 155.792 69.7763C155.475 70.0828 155.07 70.241 154.585 70.241H153.369V72.0307H152.578Z" fill="white"/>
<path d="M156.929 72.0207L158.718 69.4104L157.077 67.0077H158.006L159.223 68.8369L160.439 67.0077H161.368L159.727 69.4104L161.517 72.0207H160.587L159.223 69.9839L157.858 72.0207H156.929Z" fill="white"/>
<path d="M162.713 72.0207V67.0077H163.504V69.1237H165.976V67.0077H166.767V72.0207H165.976V69.8356H163.504V72.0207H162.713Z" fill="white"/>
<path d="M91.7402 17.4416V9.1954H97.5838V10.4313H93.0454V12.5473H96.6346V13.7931H93.0454V16.2057H97.7024V17.4416H91.7402Z" fill="white"/>
<path d="M99.4031 17.4416V9.1954H106.067V17.4416H104.772V10.4313H100.708V17.4416H99.4031Z" fill="white"/>
<path d="M108.43 9.1954H109.726V17.4416H108.43V9.1954Z" fill="white"/>
<path d="M113.612 17.4416V10.4313H111.14V9.1954H117.389V10.4313H114.907V17.4416H113.612Z" fill="white"/>
<path d="M120.098 13.3186H122.105C122.51 13.3186 122.856 13.1801 123.143 12.8934C123.43 12.6067 123.568 12.2606 123.568 11.8453C123.568 11.43 123.43 11.0741 123.143 10.7972C122.856 10.5105 122.51 10.3721 122.105 10.3721H120.098V13.3186ZM118.802 17.4417V9.18558H122.105C122.896 9.18558 123.558 9.44265 124.082 9.9568C124.606 10.471 124.873 11.0939 124.873 11.8453C124.873 12.5968 124.606 13.2197 124.082 13.7338C123.558 14.248 122.896 14.5051 122.105 14.5051H120.098V17.4516H118.802V17.4417Z" fill="white"/>
<path d="M128.235 11.1433C127.642 11.7365 127.345 12.4583 127.345 13.3185C127.345 14.1787 127.642 14.9005 128.235 15.4938C128.828 16.087 129.55 16.3836 130.41 16.3836C131.271 16.3836 131.992 16.087 132.586 15.4938C133.179 14.9005 133.476 14.1787 133.476 13.3185C133.476 12.4583 133.179 11.7365 132.586 11.1433C131.992 10.55 131.271 10.2534 130.41 10.2534C129.55 10.2534 128.828 10.55 128.235 11.1433ZM127.306 16.3342C126.465 15.5135 126.05 14.505 126.05 13.3185C126.05 12.132 126.465 11.1235 127.306 10.3028C128.146 9.48216 129.175 9.06688 130.41 9.06688C131.646 9.06688 132.685 9.48216 133.515 10.3028C134.356 11.1235 134.771 12.132 134.771 13.3185C134.771 14.505 134.356 15.5135 133.515 16.3342C132.675 17.1549 131.646 17.5702 130.41 17.5702C129.175 17.5702 128.146 17.1549 127.306 16.3342Z" fill="white"/>
<path d="M136.6 17.4416V9.1954H143.264V17.4416H141.969V10.4313H137.905V17.4416H136.6Z" fill="white"/>
<path d="M145.627 17.4416V9.1954H146.922V12.6659H150.986V9.1954H152.281V17.4416H150.986V13.8524H146.922V17.4416H145.627Z" fill="white"/>
<path d="M91.7402 31.5906V23.3345H97.5838V24.5803H93.0454V26.6962H96.6346V27.9322H93.0454V30.3546H97.7024V31.5906H91.7402Z" fill="white"/>
<path d="M99.4031 31.5906V23.3345H106.067V31.5906H104.772V24.5803H100.708V31.5906H99.4031Z" fill="white"/>
<path d="M110.082 25.2922C109.488 25.8854 109.192 26.6072 109.192 27.4674C109.192 28.3276 109.488 29.0494 110.082 29.6427C110.675 30.2359 111.397 30.5326 112.257 30.5326C113.117 30.5326 113.839 30.2359 114.432 29.6427C115.025 29.0494 115.322 28.3276 115.322 27.4674C115.322 26.6072 115.025 25.8854 114.432 25.2922C113.839 24.6989 113.117 24.4023 112.257 24.4023C111.397 24.4023 110.675 24.6989 110.082 25.2922ZM109.152 30.4831C108.312 29.6625 107.896 28.6539 107.896 27.4674C107.896 26.2809 108.312 25.2724 109.152 24.4517C109.993 23.6311 111.021 23.2158 112.257 23.2158C113.493 23.2158 114.531 23.6311 115.362 24.4517C116.202 25.2724 116.617 26.2809 116.617 27.4674C116.617 28.6539 116.202 29.6625 115.362 30.4831C114.521 31.3038 113.493 31.7191 112.257 31.7191C111.021 31.7191 109.983 31.3038 109.152 30.4831Z" fill="white"/>
<path d="M118.447 31.5906V23.3345H125.111V31.5906H123.815V24.5803H119.742V31.5906H118.447Z" fill="white"/>
<path d="M128.997 31.5906V24.5803H126.525V23.3345H132.774V24.5803H130.302V31.5906H128.997Z" fill="white"/>
<path d="M134.187 31.5906V23.3345H140.021V24.5803H135.483V26.6962H139.082V27.9322H135.483V30.3546H140.14V31.5906H134.187Z" fill="white"/>
<path d="M141.85 23.3345H143.145V31.5906H141.85V23.3345Z" fill="white"/>
<path d="M147.101 28.2881H149.81L148.455 24.8671L147.101 28.2881ZM144.451 31.5906L147.753 23.3345H149.167L152.469 31.5906H151.115L150.294 29.4648H146.636L145.805 31.5906H144.451Z" fill="white"/>
<path d="M153.29 31.5906V30.5326L155.821 27.2895L153.29 24.4023V23.3345H159.242V24.5803H154.941L157.354 27.2895L154.941 30.3546H159.242V31.5906H153.29Z" fill="white"/>
<path d="M91.7402 45.7398V37.4837H93.0454V41.498L96.7532 37.4837H98.4044L95.2206 40.9048L98.6417 45.7398H97.0498L94.3407 41.8441L93.0454 43.2679V45.7398H91.7402Z" fill="white"/>
<path d="M101.41 42.4373H104.119L102.765 39.0162L101.41 42.4373ZM98.7604 45.7398L102.063 37.4837H103.477L106.779 45.7398H105.425L104.604 43.6139H100.946L100.125 45.7398H98.7703H98.7604Z" fill="white"/>
<path d="M108.074 37.4837H109.37V45.7398H108.074V37.4837Z" fill="white"/>
<path d="M113.967 45.7398V37.4837H119.801V38.7196H115.263V40.8454H118.862V42.0814H115.263V44.5038H119.92V45.7398H113.967Z" fill="white"/>
<path d="M120.572 45.7398L123.875 37.4837H125.289L128.591 45.7398H127.236L124.577 39.0162L121.927 45.7398H120.572Z" fill="white"/>
<path d="M129.876 45.7398V37.4837H135.71V38.7196H131.172V40.8454H134.761V42.0814H131.172V44.5038H135.829V45.7398H129.876Z" fill="white"/>
<path d="M137.539 45.7398V37.4837H142.839V38.7196H138.835V45.7398H137.539Z" fill="white"/>
<path d="M143.195 45.7398L146.141 41.4387L143.432 37.4837H144.965L146.972 40.4895L148.969 37.4837H150.502L147.793 41.4387L150.739 45.7398H149.207L146.972 42.378L144.728 45.7398H143.195Z" fill="white"/>
<path d="M153.468 39.4413C152.875 40.0346 152.578 40.7564 152.578 41.6166C152.578 42.4768 152.875 43.1986 153.468 43.7919C154.061 44.3851 154.783 44.6817 155.643 44.6817C156.504 44.6817 157.225 44.3851 157.819 43.7919C158.412 43.1986 158.708 42.4768 158.708 41.6166C158.708 40.7564 158.412 40.0346 157.819 39.4413C157.225 38.8481 156.504 38.5515 155.643 38.5515C154.783 38.5515 154.061 38.8481 153.468 39.4413ZM152.539 44.6323C151.698 43.8116 151.283 42.8031 151.283 41.6166C151.283 40.4301 151.698 39.4216 152.539 38.6009C153.379 37.7802 154.407 37.365 155.643 37.365C156.879 37.365 157.908 37.7802 158.748 38.6009C159.588 39.4216 160.004 40.4301 160.004 41.6166C160.004 42.8031 159.588 43.8116 158.748 44.6323C157.908 45.453 156.879 45.8682 155.643 45.8682C154.407 45.8682 153.369 45.453 152.539 44.6323Z" fill="white"/>
<path d="M163.613 45.7398V42.7933L160.488 37.4837H161.962L164.265 41.498L166.559 37.4837H168.032L164.908 42.7933V45.7398H163.613Z" fill="white"/>
<path d="M91.5128 59.8887V51.6326H98.879V59.8887H96.6346V53.7584H93.7474V59.8887H91.5128Z" fill="white"/>
<path d="M103.358 56.2896H104.891L104.149 53.9364H104.1L103.358 56.2896ZM99.759 59.8887L102.883 51.6326H105.355L108.48 59.8887H106.067L105.474 58.1188H102.765L102.172 59.8887H99.759Z" fill="white"/>
<path d="M109.37 51.6326H111.614V59.8887H109.37V51.6326Z" fill="white"/>
<path d="M113.493 59.8887V51.6326H119.277V53.7584H115.737V59.8887H113.493Z" fill="white"/>
<path d="M120.454 59.8887V51.6326H122.401L125.931 56.171V51.6326H128.176V59.8887H126.228L122.688 55.3503V59.8887H120.454Z" fill="white"/>
<path d="M130.064 51.6326H132.299V59.8887H130.064V51.6326Z" fill="white"/>
<path d="M134.01 59.8887V58.1188H135.245C134.969 57.9409 134.731 57.7233 134.543 57.4663C134.069 56.9027 133.841 56.2105 133.841 55.3998C133.841 54.2825 134.267 53.3333 135.127 52.562C135.987 51.7809 137.085 51.3953 138.439 51.3953C139.794 51.3953 140.891 51.7809 141.751 52.562C142.612 53.3432 143.037 54.2825 143.037 55.3998C143.037 56.2105 142.8 56.8928 142.325 57.4663C142.127 57.7233 141.89 57.931 141.613 58.1188H142.849V59.8887H139.013V58.0002C140.15 57.664 140.723 56.9126 140.723 55.7557C140.723 55.0834 140.496 54.5198 140.061 54.0748C139.616 53.6299 139.072 53.4025 138.429 53.4025C137.787 53.4025 137.233 53.6299 136.788 54.0748C136.343 54.5198 136.125 55.0834 136.125 55.7557C136.125 56.9126 136.699 57.6541 137.836 58.0002V59.8887H134.01Z" fill="white"/>
<path d="M144.559 59.8887V51.6326H146.507L150.047 56.171V51.6326H152.282V59.8887H150.344L146.804 55.3503V59.8887H144.559Z" fill="white"/>
<path d="M90.4846 79.199V79.5945H168.784V79.1891L90.4846 79.199Z" fill="white"/>
</g>
<defs>
<clipPath id="clip0_218_722006">
<rect width="168.691" height="80" fill="white" transform="translate(0.0927734)"/>
</clipPath>
</defs>
</svg>
